<svg height="512pt" viewBox="0 -16 512 512" width="512pt" xmlns="http://www.w3.org/2000/svg"><path d="m512 75v225l-30 30h-392l-30-30v-225c0-24.902344 20.097656-45 45-45h362c24.902344 0 45 20.097656 45 45zm0 0" fill="#3e5959"/><path d="m512 75v225l-30 30h-196v-300h181c24.902344 0 45 20.097656 45 45zm0 0" fill="#384949"/><path d="m482 75v255h-392v-255c0-8.402344 6.597656-15 15-15h362c8.402344 0 15 6.597656 15 15zm0 0" fill="#ececf1"/><path d="m482 75v255h-196v-270h181c8.402344 0 15 6.597656 15 15zm0 0" fill="#e2e2e7"/><path d="m240 330h91v90h-91zm0 0" fill="#3e5959"/><path d="m286 330h45v90h-45zm0 0" fill="#384949"/><path d="m512 300v15c0 24.902344-20.097656 45-45 45h-362c-24.902344 0-45-20.097656-45-45v-15zm0 0" fill="#4a696f"/><path d="m512 300v15c0 24.902344-20.097656 45-45 45h-181v-60zm0 0" fill="#3e5959"/><path d="m452 435c0 8.402344-6.597656 15-15 15h-302c-8.402344 0-15-6.597656-15-15 0-24.902344 20.097656-45 45-45h242c24.902344 0 45 20.097656 45 45zm0 0" fill="#4a696f"/><path d="m452 435c0 8.402344-6.597656 15-15 15h-151v-60h121c24.902344 0 45 20.097656 45 45zm0 0" fill="#3e5959"/><path d="m210 120v315c0 24.902344-20.097656 45-45 45h-120c-24.902344 0-45-20.097656-45-45v-315l98.402344-30 6.597656 1.800781zm0 0" fill="#3e5959"/><path d="m105 91.800781 105 28.199219v315c0 24.902344-20.097656 45-45 45h-60zm0 0" fill="#384949"/><path d="m210 60v60h-210v-60l90-30 15 3.898438zm0 0" fill="#4a696f"/><path d="m210 60v60h-105v-86.101562zm0 0" fill="#3e5959"/><path d="m210 45v15h-210v-15c0-24.902344 20.097656-45 45-45h120c24.902344 0 45 20.097656 45 45zm0 0" fill="#3e5959"/><path d="m210 45v15h-105v-60h60c24.902344 0 45 20.097656 45 45zm0 0" fill="#384949"/><path d="m120 285c0 8.402344-6.597656 15-15 15s-15-6.597656-15-15 6.597656-15 15-15 15 6.597656 15 15zm0 0" fill="#ececf1"/><path d="m105 300v-30c8.402344 0 15 6.597656 15 15s-6.597656 15-15 15zm0 0" fill="#e2e2e7"/><path d="m105 330c-24.902344 0-45 20.097656-45 45s20.097656 45 45 45 45-20.097656 45-45-20.097656-45-45-45zm0 0" fill="#00ddc1"/><path d="m150 375c0 24.902344-20.097656 45-45 45v-90c24.902344 0 45 20.097656 45 45zm0 0" fill="#00ccb2"/></svg>